<svg xmlns="http://www.w3.org/2000/svg" width="28.423" height="28.423" viewBox="0 0 28.423 28.423">
  <g id="Calendar" transform="translate(-2 -2)">
    <path id="Path_14214" data-name="Path 14214" d="M28.054,4.842H25.686V3.895a1.895,1.895,0,0,0-3.79,0v.947h-3.79V3.895a1.895,1.895,0,0,0-3.79,0v.947h-3.79V3.895a1.895,1.895,0,0,0-3.79,0v.947H4.369A2.369,2.369,0,0,0,2,7.211V26.159a2.369,2.369,0,0,0,2.369,2.369H17.632a.474.474,0,0,0,0-.947H4.369a1.425,1.425,0,0,1-1.421-1.421V11.474H29.475v8.053a.474.474,0,1,0,.947,0V7.211a2.369,2.369,0,0,0-2.369-2.369Zm-5.211-.947a.947.947,0,0,1,1.895,0V6.737a.947.947,0,0,1-1.895,0Zm-7.579,0a.947.947,0,1,1,1.895,0V6.737a.947.947,0,1,1-1.895,0Zm-7.579,0a.947.947,0,0,1,1.895,0V6.737a.947.947,0,1,1-1.895,0Zm21.791,6.632H2.947V7.211A1.425,1.425,0,0,1,4.369,5.79H6.737v.947a1.895,1.895,0,0,0,3.79,0V5.79h3.79v.947a1.895,1.895,0,1,0,3.79,0V5.79H21.9v.947a1.895,1.895,0,1,0,3.79,0V5.79h2.369a1.425,1.425,0,0,1,1.421,1.421Z" transform="translate(0)" fill="#3e3e3e"/>
    <path id="Path_14215" data-name="Path 14215" d="M25.79,27.947A.947.947,0,0,0,24.842,27H22.947a.947.947,0,0,0-.947.947v1.421a.947.947,0,0,0,.947.947h1.895a.947.947,0,0,0,.947-.947Zm-2.842,1.421V27.947h1.895v1.421Z" transform="translate(-10.526 -13.157)" fill="#3e3e3e"/>
    <path id="Path_14216" data-name="Path 14216" d="M13.79,27.947A.947.947,0,0,0,12.842,27H10.947a.947.947,0,0,0-.947.947v1.421a.947.947,0,0,0,.947.947h1.895a.947.947,0,0,0,.947-.947Zm-2.842,1.421V27.947h1.895v1.421Z" transform="translate(-4.21 -13.157)" fill="#3e3e3e"/>
    <path id="Path_14217" data-name="Path 14217" d="M48.842,30.316a.947.947,0,0,0,.947-.947V27.947A.947.947,0,0,0,48.842,27H46.947a.947.947,0,0,0-.947.947v1.421a.947.947,0,0,0,.947.947Zm-1.895-2.369h1.895v1.421H46.947Z" transform="translate(-23.157 -13.157)" fill="#3e3e3e"/>
    <path id="Path_14218" data-name="Path 14218" d="M25.79,36.947A.947.947,0,0,0,24.842,36H22.947a.947.947,0,0,0-.947.947v1.421a.947.947,0,0,0,.947.947h1.895a.947.947,0,0,0,.947-.947Zm-2.842,1.421V36.947h1.895v1.421Z" transform="translate(-10.526 -17.894)" fill="#3e3e3e"/>
    <path id="Path_14219" data-name="Path 14219" d="M13.79,36.947A.947.947,0,0,0,12.842,36H10.947a.947.947,0,0,0-.947.947v1.421a.947.947,0,0,0,.947.947h1.895a.947.947,0,0,0,.947-.947Zm-2.842,1.421V36.947h1.895v1.421Z" transform="translate(-4.21 -17.894)" fill="#3e3e3e"/>
    <path id="Path_14220" data-name="Path 14220" d="M24.842,45H22.947a.947.947,0,0,0-.947.947v1.421a.947.947,0,0,0,.947.947h1.895a.947.947,0,0,0,.947-.947V45.947A.947.947,0,0,0,24.842,45Zm-1.895,2.369V45.947h1.895v1.421Z" transform="translate(-10.526 -22.63)" fill="#3e3e3e"/>
    <path id="Path_14221" data-name="Path 14221" d="M34.947,30.316h1.895a.947.947,0,0,0,.947-.947V27.947A.947.947,0,0,0,36.842,27H34.947a.947.947,0,0,0-.947.947v1.421A.947.947,0,0,0,34.947,30.316Zm0-2.369h1.895v1.421H34.947Z" transform="translate(-16.841 -13.157)" fill="#3e3e3e"/>
    <path id="Path_14222" data-name="Path 14222" d="M34,38.369a.947.947,0,0,0,.947.947.474.474,0,1,0,0-.947V36.947h1.895a.474.474,0,0,0,0-.947H34.947a.947.947,0,0,0-.947.947Z" transform="translate(-16.841 -17.894)" fill="#3e3e3e"/>
    <path id="Path_14223" data-name="Path 14223" d="M12.842,45H10.947a.947.947,0,0,0-.947.947v1.421a.947.947,0,0,0,.947.947h1.895a.947.947,0,0,0,.947-.947V45.947A.947.947,0,0,0,12.842,45Zm-1.895,2.369V45.947h1.895v1.421Z" transform="translate(-4.21 -22.63)" fill="#3e3e3e"/>
    <path id="Path_14224" data-name="Path 14224" d="M42.158,36a6.158,6.158,0,1,0,6.158,6.158A6.158,6.158,0,0,0,42.158,36Zm0,11.369a5.211,5.211,0,1,1,5.211-5.211,5.211,5.211,0,0,1-5.211,5.211Z" transform="translate(-17.894 -17.894)" fill="#3e3e3e"/>
    <path id="Path_14225" data-name="Path 14225" d="M47.926,44.654l-3.685,3.685-1.675-1.675a.474.474,0,1,0-.67.67l2.01,2.01a.474.474,0,0,0,.67,0L48.6,45.324a.474.474,0,1,0-.67-.67Z" transform="translate(-20.924 -22.375)" fill="#3e3e3e"/>
  </g>
</svg>
