<svg id="_3586369_discount_price_sale_icon" data-name="3586369_discount_price_sale_icon" xmlns="http://www.w3.org/2000/svg" width="32.65" height="32.901" viewBox="0 0 32.65 32.901">
  <path id="Path_14142" data-name="Path 14142" d="M44.363,37.9,33.539,46.5a.522.522,0,0,0-.072.753.511.511,0,0,0,.43.215.5.5,0,0,0,.323-.108l10.824-8.6a.549.549,0,0,0-.681-.86Z" transform="translate(-22.967 -25.822)" fill="#3e3e3e"/>
  <path id="Path_14143" data-name="Path 14143" d="M37.133,38.993a1.744,1.744,0,0,0,.43-.036,2.7,2.7,0,0,0,2.258-3.118,2.764,2.764,0,0,0-1.075-1.792,2.669,2.669,0,0,0-2.007-.5,2.764,2.764,0,0,0-1.792,1.075,2.669,2.669,0,0,0-.5,2.007A2.757,2.757,0,0,0,37.133,38.993Zm-.251-4.337c.072,0,.179-.036.251-.036a1.64,1.64,0,1,1-1.613,1.9A1.651,1.651,0,0,1,36.883,34.656Z" transform="translate(-23.658 -23.08)" fill="#3e3e3e"/>
  <path id="Path_14144" data-name="Path 14144" d="M53.124,53.8a2.724,2.724,0,1,0,2.724,2.724A2.77,2.77,0,0,0,53.124,53.8Zm0,4.337a1.649,1.649,0,1,1,1.649-1.649A1.668,1.668,0,0,1,53.124,58.137Z" transform="translate(-33.914 -36.095)" fill="#3e3e3e"/>
  <path id="Path_14145" data-name="Path 14145" d="M37.014,20.85c0-.036.036-.108.036-.143,0-1.541-1.613-2.33-3.011-3.011-1-.5-2.079-1.039-2.365-1.684-.287-.681.108-1.792.5-2.831.538-1.469,1.075-2.975.072-3.978s-2.437-.645-3.871-.323a5.222,5.222,0,0,1-2.724.179,5.115,5.115,0,0,1-1.792-2.043C23.072,5.8,22.212,4.4,20.707,4.4s-2.365,1.4-3.118,2.652a4.954,4.954,0,0,1-1.756,2.079,5.048,5.048,0,0,1-2.76-.215c-1.434-.358-2.9-.717-3.871.251-1,1-.5,2.509-.036,3.978a4.781,4.781,0,0,1,.394,2.867c-.287.681-1.29,1.183-2.258,1.684-1.362.717-2.9,1.505-2.9,3.011a.215.215,0,0,0,.036.143c0,.036-.036.108-.036.143C4.4,22.5,5.941,23.323,7.3,24c.968.5,1.971,1,2.258,1.684s-.072,1.792-.394,2.867C8.7,30.025,8.2,31.531,9.2,32.534s2.473.609,3.871.251a5.048,5.048,0,0,1,2.76-.215,4.955,4.955,0,0,1,1.756,2.079C18.342,35.9,19.2,37.3,20.707,37.3s2.4-1.4,3.154-2.616a5.115,5.115,0,0,1,1.792-2.043,4.86,4.86,0,0,1,2.724.179c1.4.323,2.867.681,3.871-.323s.466-2.509-.072-3.978c-.394-1.075-.788-2.15-.5-2.831S33,24.506,34.039,24c1.4-.717,3.011-1.505,3.011-3.011C37.05,20.922,37.014,20.886,37.014,20.85Zm-3.476,2.186c-1.183.609-2.437,1.219-2.867,2.258-.466,1.075.036,2.365.466,3.62.43,1.183.86,2.33.323,2.831-.573.573-1.684.323-2.867.036a5.56,5.56,0,0,0-3.4-.108,5.54,5.54,0,0,0-2.258,2.437c-.681,1.075-1.326,2.115-2.258,2.115-.9,0-1.541-1.039-2.222-2.15a5.542,5.542,0,0,0-2.258-2.509,5.448,5.448,0,0,0-3.441.179c-1.183.287-2.294.573-2.867.036-.538-.538-.179-1.684.215-2.867.394-1.254.824-2.545.358-3.584-.43-1.039-1.613-1.649-2.76-2.222C6.515,22.5,5.4,21.926,5.4,21.03a.215.215,0,0,0-.036-.143c0-.036.036-.108.036-.143,0-.86,1.111-1.434,2.294-2.079,1.147-.573,2.33-1.183,2.76-2.222a5.506,5.506,0,0,0-.358-3.584c-.394-1.219-.753-2.365-.215-2.867.573-.573,1.684-.287,2.867.036a5.71,5.71,0,0,0,3.441.179A5.542,5.542,0,0,0,18.449,7.7c.681-1.111,1.29-2.15,2.222-2.15s1.577,1.039,2.258,2.115A5.98,5.98,0,0,0,25.187,10.1a5.841,5.841,0,0,0,3.4-.108c1.183-.287,2.294-.538,2.867.036.538.5.108,1.649-.323,2.831-.466,1.254-.932,2.545-.466,3.62.43,1.039,1.684,1.649,2.867,2.258,1.254.609,2.4,1.219,2.4,2.079a.215.215,0,0,0,.036.143c0,.036-.036.108-.036.143C35.975,21.818,34.792,22.427,33.538,23.037Z" transform="translate(-4.4 -4.4)" fill="#3e3e3e"/>
</svg>
