<svg xmlns="http://www.w3.org/2000/svg" width="24.651" height="32.99" viewBox="0 0 24.651 32.99">
  <g id="father-and-son" transform="translate(-22.692 -1.7)">
    <path id="Path_4646" data-name="Path 4646" d="M36.169,8.539a3.169,3.169,0,1,1,3.169-3.169A3.167,3.167,0,0,1,36.169,8.539Z" transform="translate(-6.149)" fill="none" stroke="#3e3e3e" stroke-width="1"/>
    <path id="Path_4647" data-name="Path 4647" d="M36.247,25.193A3.924,3.924,0,0,0,32.369,21.8H27.708a3.949,3.949,0,0,0-3.953,3.654L23.2,32.092a1.2,1.2,0,0,0,1.081,1.268h.186a1.23,1.23,0,0,0,1.081-1.119l.485-6.153c.037-.186.075-.559.41-.559.112,0,.3.037.3.485V45.03a1.419,1.419,0,0,0,1.492,1.342,1.444,1.444,0,0,0,1.342-1.342V34.217a3.894,3.894,0,0,1,.932,0V44.993A1.419,1.419,0,0,0,32,46.336a1.444,1.444,0,0,0,1.342-1.342V25.976c0-.447.186-.485.3-.485.336,0,.41.485.447.634l.932,4.661a1.245,1.245,0,0,0,1.231.969,1.2,1.2,0,0,0,1.119-1.231.279.279,0,0,0-.037-.186Z" transform="translate(0 -12.292)" fill="none" stroke="#3e3e3e" stroke-width="1"/>
    <path id="Path_4648" data-name="Path 4648" d="M69.11,44.62a2.61,2.61,0,1,0-2.61-2.61A2.594,2.594,0,0,0,69.11,44.62Z" transform="translate(-27.158 -23.329)" fill="none" stroke="#3e3e3e" stroke-width="1"/>
    <path id="Path_4649" data-name="Path 4649" d="M67.845,52.742A2.614,2.614,0,0,0,66.5,51.549a2.441,2.441,0,0,0-1.156-.186c-.634,0-1.976,0-2.573-.075A3.385,3.385,0,0,1,59.9,49.573a1.076,1.076,0,0,0-1.156-.6,1.03,1.03,0,0,0-.783,1.231.53.53,0,0,0,.075.224A4.624,4.624,0,0,0,61.1,53.078v9.247a1.166,1.166,0,0,0,.895,1.156,1.136,1.136,0,0,0,1.342-.858.634.634,0,0,0,.037-.261V57.329h.671v5a1.122,1.122,0,0,0,1.119,1.119,1.147,1.147,0,0,0,1.119-1.119V53.973c.037-.149.186-.112.261.112a5.976,5.976,0,0,1,.373,2.349.887.887,0,0,0,.858.82h.037a.877.877,0,0,0,.82-.932,6.1,6.1,0,0,0-.783-3.58Z" transform="translate(-21.791 -29.325)" fill="none" stroke="#3e3e3e" stroke-width="1"/>
  </g>
</svg>
