<svg xmlns="http://www.w3.org/2000/svg" width="14.063" height="20" viewBox="0 0 14.063 20">
  <g id="Group_25614" data-name="Group 25614" transform="translate(-606 -957)">
    <path id="Path_4644" data-name="Path 4644" d="M82.544,19.739a.586.586,0,0,0,.975,0c1.387-2.08,3.429-4.649,4.852-7.261a11.641,11.641,0,0,0,1.691-5.447A7.031,7.031,0,0,0,76,7.031a11.641,11.641,0,0,0,1.691,5.447C79.114,15.088,81.16,17.663,82.544,19.739Zm.488-18.567a5.866,5.866,0,0,1,5.859,5.859,10.545,10.545,0,0,1-1.548,4.886,73.7,73.7,0,0,1-4.311,6.457,73.7,73.7,0,0,1-4.311-6.457,10.545,10.545,0,0,1-1.548-4.886,5.866,5.866,0,0,1,5.859-5.859Z" transform="translate(530 957)" fill="#3e3e3e"/>
    <path id="Path_4645" data-name="Path 4645" d="M169.516,97.031A3.516,3.516,0,1,0,166,93.516,3.52,3.52,0,0,0,169.516,97.031Zm0-5.859a2.344,2.344,0,1,1-2.344,2.344A2.346,2.346,0,0,1,169.516,91.172Z" transform="translate(443.516 870.516)" fill="#3e3e3e"/>
  </g>
</svg>
