<svg xmlns="http://www.w3.org/2000/svg" width="39.263" height="14.674" viewBox="0 0 39.263 14.674">
  <g id="sedan" transform="translate(0 -160.323)">
    <path id="Path_4651" data-name="Path 4651" d="M91.1,292.949a.573.573,0,0,0,.407-.168l.869-.869a.575.575,0,0,0-.813-.813l-.869.869a.575.575,0,0,0,.407.982Z" transform="translate(-83.583 -120.591)" fill="#3e3e3e"/>
    <path id="Path_4652" data-name="Path 4652" d="M404.193,292.779a.575.575,0,1,0,.813-.813l-.869-.869a.575.575,0,0,0-.813.813Z" transform="translate(-372.239 -120.59)" fill="#3e3e3e"/>
    <path id="Path_4653" data-name="Path 4653" d="M37.528,166.294c-3.248-1.509-8.135-1.653-9.121-1.666l-4.66-2.965a8.552,8.552,0,0,0-4.6-1.339H13.672a9.228,9.228,0,0,0-4.106.969l-2.917,1.459a8.624,8.624,0,0,1-2.794.846l-2.274.284A1.807,1.807,0,0,0,0,165.672v3.671a2.43,2.43,0,0,0,1.755,2.326l2.717.776a3.647,3.647,0,0,0,6.649.708H28.756a3.652,3.652,0,1,0-.42-1.15h-16.8a3.648,3.648,0,1,0-7.234-.8l-2.236-.639a1.274,1.274,0,0,1-.92-1.22V167.62H1.8a.575.575,0,0,0,0-1.15H1.15v-.8a.655.655,0,0,1,.573-.649L4,164.738a9.772,9.772,0,0,0,3.166-.959l.262-.131,1.064,1.059a3.625,3.625,0,0,0,2.58,1.069h1.186a.575.575,0,0,0,0-1.15H11.069a2.53,2.53,0,0,1-.3-.018l.635-2.807a8.061,8.061,0,0,1,2.265-.328H16.6v3.153H14.714a.575.575,0,1,0,0,1.15H28.237c.055,0,5.488.02,8.807,1.561a1.808,1.808,0,0,1,.516.362h-.717a.575.575,0,0,0,0,1.15H38.1c.006.062.01.125.01.188v2.041c0,.57-.251.924-.654.924a.575.575,0,1,0,0,1.15,1.7,1.7,0,0,0,1.3-.59,2.218,2.218,0,0,0,.5-1.484v-2.041a3.028,3.028,0,0,0-1.734-2.744Zm-5.6,2.556a2.5,2.5,0,1,1-2.5,2.5A2.5,2.5,0,0,1,31.926,168.85Zm-23.974,0a2.5,2.5,0,1,1-2.5,2.5,2.5,2.5,0,0,1,2.5-2.5Zm1.73-4.643a2.525,2.525,0,0,1-.38-.312l-.789-.789,1.567-.784.032-.016Zm8.066-2.733h1.4a7.4,7.4,0,0,1,3.982,1.159l3.132,1.993H17.748Z" fill="#3e3e3e"/>
    <path id="Path_4654" data-name="Path 4654" d="M168.914,280.564a.575.575,0,0,0,0,1.15h12.909a.575.575,0,1,0,0-1.15Z" transform="translate(-155.43 -111.02)" fill="#3e3e3e"/>
  </g>
</svg>
