<svg xmlns="http://www.w3.org/2000/svg" width="17.407" height="20" viewBox="0 0 17.407 20">
  <path id="share" d="M14.133,13.453a3.266,3.266,0,0,0-2.421,1.072l-5.39-3.338a3.261,3.261,0,0,0,0-2.374l5.39-3.338a3.273,3.273,0,1,0-.629-1.014L5.694,7.8a3.274,3.274,0,1,0,0,4.4l5.389,3.338a3.273,3.273,0,1,0,3.05-2.086ZM12.053,3.274a2.08,2.08,0,1,1,2.08,2.08A2.082,2.082,0,0,1,12.053,3.274ZM3.273,12.08A2.08,2.08,0,1,1,5.353,10,2.082,2.082,0,0,1,3.273,12.08Zm8.78,4.646a2.08,2.08,0,1,1,2.08,2.08A2.082,2.082,0,0,1,12.053,16.727Zm0,0" transform="translate(0 0)" fill="#757575"/>
</svg>
