<svg xmlns="http://www.w3.org/2000/svg" width="31.355" height="28.423" viewBox="0 0 31.355 28.423">
  <g id="ticket" transform="translate(0 -23.941)">
    <g id="Group_135" data-name="Group 135" transform="translate(11.217 23.941)">
      <g id="Group_134" data-name="Group 134" transform="translate(0 0)">
        <path id="Path_4655" data-name="Path 4655" d="M202.833,38.772h-.6a.911.911,0,0,1,0-1.822h.6a.464.464,0,0,0,.464-.464V33.7a.464.464,0,0,0-.464-.464h-.6a.912.912,0,0,1-.911-.911v-.169l.681-.624a.464.464,0,0,0,.039-.644l-1.812-2.115a.464.464,0,0,0-.654-.05l-.455.39a.911.911,0,0,1-1.186-1.384l.455-.39a.464.464,0,0,0,.05-.654l-1.812-2.114a.464.464,0,0,0-.654-.05l-.455.39a.911.911,0,0,1-1.285-.1l-.608-.709a.464.464,0,0,0-.654-.05l-8.024,6.875h-1.325a.464.464,0,0,0,0,.928h16.771v.47a1.841,1.841,0,0,0,1.839,1.839h.136v1.856h-.136a1.839,1.839,0,1,0,0,3.679h.136v1.856h-.136a1.841,1.841,0,0,0-1.839,1.839v1.052h-3.209a.464.464,0,1,0,0,.928h3.673a.464.464,0,0,0,.464-.464V43.4a.912.912,0,0,1,.911-.911h.6a.464.464,0,0,0,.464-.464V39.236A.464.464,0,0,0,202.833,38.772Zm-16.458-7.844,6.849-5.868.306.357a1.839,1.839,0,0,0,2.594.2l.1-.088,1.208,1.41-.1.088a1.839,1.839,0,1,0,2.394,2.794l.1-.088,1.025,1.2Z" transform="translate(-183.159 -23.941)" fill="#3e3e3e"/>
      </g>
    </g>
    <g id="Group_137" data-name="Group 137" transform="translate(0 30.928)">
      <g id="Group_136" data-name="Group 136">
        <path id="Path_4656" data-name="Path 4656" d="M21.169,151.551H2.9v-.47a1.841,1.841,0,0,0-1.839-1.839H.928v-1.856h.136a1.839,1.839,0,0,0,0-3.679H.928v-1.856h.136A1.841,1.841,0,0,0,2.9,140.012v-1.052H8.2a.464.464,0,0,0,0-.928H2.439a.464.464,0,0,0-.464.464v1.516a.912.912,0,0,1-.911.911h-.6a.464.464,0,0,0-.464.464v2.785a.464.464,0,0,0,.464.464h.6a.911.911,0,1,1,0,1.822h-.6a.464.464,0,0,0-.464.464v2.785a.464.464,0,0,0,.464.464h.6a.912.912,0,0,1,.911.911v.251l-.656.52a.464.464,0,0,0-.064.666l1.812,2.115a.464.464,0,0,0,.654.05l.456-.39a.911.911,0,0,1,1.285.1.912.912,0,0,1-.1,1.285l-.455.39a.464.464,0,0,0-.05.654l1.812,2.115a.464.464,0,0,0,.654.05l.456-.39a.911.911,0,0,1,1.285.1l.608.709a.464.464,0,0,0,.654.05l8.01-6.863.013-.012h2.821a.464.464,0,0,0,0-.928Zm-11.095,6.8-.306-.357a1.839,1.839,0,0,0-2.594-.2l-.1.088-1.208-1.41.1-.088a1.839,1.839,0,0,0-2.394-2.794l-.1.088-1.025-1.2H16.922Z" transform="translate(0 -138.031)" fill="#3e3e3e"/>
      </g>
    </g>
    <g id="Group_139" data-name="Group 139" transform="translate(4.686 33.103)">
      <g id="Group_138" data-name="Group 138" transform="translate(0 0)">
        <path id="Path_4657" data-name="Path 4657" d="M98.041,173.562H84.82a.464.464,0,0,0,0,.928H97.577v8.24H77.451v-8.24h3.821a.464.464,0,0,0,0-.928H76.987a.464.464,0,0,0-.464.464v9.169a.464.464,0,0,0,.464.464H98.041a.464.464,0,0,0,.464-.464v-9.169A.464.464,0,0,0,98.041,173.562Z" transform="translate(-76.523 -173.562)" fill="#3e3e3e"/>
      </g>
    </g>
    <g id="Group_141" data-name="Group 141" transform="translate(6.783 36.12)">
      <g id="Group_140" data-name="Group 140">
        <path id="Path_4658" data-name="Path 4658" d="M113.574,222.827H111.01c-.17,0-.248.182-.248.351,0,.194.091.358.248.358h.891v3.472c0,.164.194.248.394.248s.394-.085.394-.248v-3.472h.885c.158,0,.248-.17.248-.358C113.822,223.009,113.743,222.827,113.574,222.827Z" transform="translate(-110.762 -222.827)" fill="#3e3e3e"/>
      </g>
    </g>
    <g id="Group_143" data-name="Group 143" transform="translate(10.273 36.12)">
      <g id="Group_142" data-name="Group 142">
        <path id="Path_4659" data-name="Path 4659" d="M168.149,222.827c-.2,0-.394.073-.394.242v3.939c0,.164.194.248.394.248s.394-.085.394-.248v-3.939C168.543,222.9,168.343,222.827,168.149,222.827Z" transform="translate(-167.755 -222.827)" fill="#3e3e3e"/>
      </g>
    </g>
    <g id="Group_145" data-name="Group 145" transform="translate(11.746 36.12)">
      <g id="Group_144" data-name="Group 144" transform="translate(0 0)">
        <path id="Path_4660" data-name="Path 4660" d="M194.241,225.7c-.206,0-.376.061-.388.248-.018.254-.067.648-.618.648-.418,0-.648-.224-.648-.7v-1.691c0-.473.23-.7.636-.7a.562.562,0,0,1,.63.6c.006.182.17.248.394.248.267,0,.394-.073.394-.388,0-.7-.6-1.151-1.442-1.151a1.264,1.264,0,0,0-1.4,1.388V225.9a1.259,1.259,0,0,0,1.394,1.388c.848,0,1.448-.467,1.448-1.2C194.641,225.782,194.514,225.7,194.241,225.7Z" transform="translate(-191.799 -222.825)" fill="#3e3e3e"/>
      </g>
    </g>
    <g id="Group_147" data-name="Group 147" transform="translate(15.121 36.12)">
      <g id="Group_146" data-name="Group 146">
        <path id="Path_4661" data-name="Path 4661" d="M249.866,226.754l-1.321-2.012,1.085-1.357a.234.234,0,0,0,.048-.151.491.491,0,0,0-.454-.406.25.25,0,0,0-.218.115l-1.309,1.781v-1.654c0-.17-.2-.242-.394-.242s-.394.073-.394.242h0v3.939c0,.164.194.248.394.248s.394-.085.394-.248V225.82l.327-.412,1.139,1.727a.308.308,0,0,0,.273.151.48.48,0,0,0,.473-.394A.237.237,0,0,0,249.866,226.754Z" transform="translate(-246.909 -222.827)" fill="#3e3e3e"/>
      </g>
    </g>
    <g id="Group_149" data-name="Group 149" transform="translate(18.465 36.12)">
      <g id="Group_148" data-name="Group 148">
        <path id="Path_4662" data-name="Path 4662" d="M304.028,226.565h-1.715v-1.218h.921a.274.274,0,0,0,.248-.3c0-.164-.091-.315-.248-.315h-.921v-1.212h1.715c.158,0,.248-.164.248-.351,0-.164-.079-.339-.248-.339H301.87c-.176,0-.345.085-.345.248v3.933c0,.164.17.248.345.248h2.157c.17,0,.248-.176.248-.339C304.276,226.728,304.185,226.565,304.028,226.565Z" transform="translate(-301.525 -222.826)" fill="#3e3e3e"/>
      </g>
    </g>
    <g id="Group_151" data-name="Group 151" transform="translate(21.386 36.12)">
      <g id="Group_150" data-name="Group 150">
        <path id="Path_4663" data-name="Path 4663" d="M352.028,222.827h-2.563c-.17,0-.248.182-.248.351,0,.194.091.358.248.358h.891v3.472c0,.164.194.248.394.248s.394-.085.394-.248v-3.472h.885c.158,0,.248-.17.248-.358C352.276,223.009,352.2,222.827,352.028,222.827Z" transform="translate(-349.216 -222.827)" fill="#3e3e3e"/>
      </g>
    </g>
  </g>
</svg>
