<svg xmlns="http://www.w3.org/2000/svg" width="47.332" height="47.332" viewBox="0 0 47.332 47.332">
  <g id="_7693314_instagram_social_media_logo_apps_icon" data-name="7693314_instagram_social media_logo_apps_icon" opacity="0.8">
    <path id="Path_14" data-name="Path 14" d="M162.985,147.525H152.121a4.6,4.6,0,0,0-4.6,4.6v10.864a4.6,4.6,0,0,0,4.6,4.6h10.864a4.6,4.6,0,0,0,4.6-4.6V152.121a4.6,4.6,0,0,0-4.6-4.6Zm-5.432,16.35a6.322,6.322,0,1,1,6.323-6.322A6.322,6.322,0,0,1,157.553,163.875Zm6.586-11.353a1.5,1.5,0,1,1,1.5-1.5,1.5,1.5,0,0,1-1.5,1.5Z" transform="translate(-133.887 -133.887)" fill="#fff"/>
    <path id="Path_15" data-name="Path 15" d="M215.655,211.545a4.11,4.11,0,1,0,4.11,4.11A4.11,4.11,0,0,0,215.655,211.545Z" transform="translate(-191.989 -191.989)" fill="#fff"/>
    <path id="Path_16" data-name="Path 16" d="M23.666,0A23.666,23.666,0,1,0,47.332,23.666,23.666,23.666,0,0,0,23.666,0ZM35.992,28.889a7.1,7.1,0,0,1-7.1,7.1H18.443a7.1,7.1,0,0,1-7.1-7.1V18.443a7.1,7.1,0,0,1,7.1-7.1H28.889a7.1,7.1,0,0,1,7.1,7.1Z" transform="translate(0 0)" fill="#fff"/>
  </g>
</svg>
