<svg xmlns="http://www.w3.org/2000/svg" width="47.332" height="47.332" viewBox="0 0 47.332 47.332">
  <path id="_7693316_linkedin_social_media_logo_icon" data-name="7693316_linkedin_social media_logo_icon" d="M23.666,0A23.666,23.666,0,1,0,47.332,23.666,23.666,23.666,0,0,0,23.666,0ZM16.958,35.376H11.683V18.827h5.274ZM14.321,16.659a2.967,2.967,0,1,1,2.968-2.967A2.968,2.968,0,0,1,14.321,16.659ZM35.98,35.376H30.8V26.327c0-.46.073-3.508-2.516-3.508a2.861,2.861,0,0,0-2.374,1.163,3.618,3.618,0,0,0-.723,2.2v9.194H20.019V18.827h4.92v2.323A5.974,5.974,0,0,1,35.979,24.23Z" fill="#fff" opacity="0.8"/>
</svg>
