<svg xmlns="http://www.w3.org/2000/svg" width="47.332" height="47.332" viewBox="0 0 47.332 47.332">
  <path id="_7693327_twitter_social_media_logo_apps_icon" data-name="7693327_twitter_social media_logo_apps_icon" d="M23.666,0A23.666,23.666,0,1,0,47.332,23.666,23.666,23.666,0,0,0,23.666,0ZM34.012,18.364c.028,1.765-.206,10.589-8.581,14.413a14.931,14.931,0,0,1-14.707-.941,11.04,11.04,0,0,0,7.758-2.206,5.5,5.5,0,0,1-4.9-3.692,4.54,4.54,0,0,0,2.289-.142,5.439,5.439,0,0,1-4.128-5.255,3.918,3.918,0,0,0,2.265.588c-3.922-2.824-1.522-7.03-1.522-7.03A15.861,15.861,0,0,0,23.51,19.692a6.2,6.2,0,0,1-.138-1.328,5.353,5.353,0,0,1,5.295-5.295,5.93,5.93,0,0,1,3.8,1.647,8.358,8.358,0,0,0,3.442-1.206,5.252,5.252,0,0,1-2.191,2.942,11.829,11.829,0,0,0,2.89-.824A10.971,10.971,0,0,1,34.012,18.364Z" fill="#fff" opacity="0.8"/>
</svg>
