<svg xmlns="http://www.w3.org/2000/svg" width="47.332" height="47.332" viewBox="0 0 47.332 47.332">
  <g id="_7693331_whatsapp_social_media_logo_messenger_apps_icon" data-name="7693331_whatsapp_social media_logo_messenger_apps_icon" opacity="0.8">
    <path id="Path_17" data-name="Path 17" d="M153.7,127.88a11.134,11.134,0,0,0-9.217,17.38l-1.088,4.2,4.375-1.021a11.133,11.133,0,1,0,5.93-20.557Zm5.475,17.212c-1.557.73-4.808.349-8.234-2.582s-4.3-6.085-3.823-7.736a2.817,2.817,0,0,1,2.726-1.877c.356.079,2.138,2.9,1.9,3.233s-1.415,1.5-1.415,1.5-.049,1.2,2.153,3.084,3.38,1.65,3.38,1.65.978-1.34,1.266-1.631,3.354,1.034,3.487,1.373a2.817,2.817,0,0,1-1.434,2.983Z" transform="translate(-129.387 -116.058)" fill="#fff"/>
    <path id="Path_18" data-name="Path 18" d="M23.666,0A23.666,23.666,0,1,0,47.332,23.666,23.666,23.666,0,0,0,23.666,0Zm.647,36.419a13.4,13.4,0,0,1-6.366-1.6l-7.159,1.787L12.6,29.6a13.465,13.465,0,1,1,11.711,6.818Z" transform="translate(0 0)" fill="#fff"/>
  </g>
</svg>
