<svg xmlns="http://www.w3.org/2000/svg" width="47.332" height="47.332" viewBox="0 0 47.332 47.332">
  <path id="_5279120_play_video_youtube_youtuble_logo_icon" data-name="5279120_play_video_youtube_youtuble logo_icon" d="M23.666,0A23.666,23.666,0,1,1,0,23.666,23.677,23.677,0,0,1,23.666,0ZM37.839,16.546a3.7,3.7,0,0,0-2.615-2.615c-2.307-.618-11.558-.618-11.558-.618s-9.251,0-11.558.618a3.7,3.7,0,0,0-2.615,2.615,38.508,38.508,0,0,0-.618,7.121,38.5,38.5,0,0,0,.618,7.12A3.705,3.705,0,0,0,12.108,33.4c2.307.618,11.558.618,11.558.618s9.251,0,11.558-.618a3.7,3.7,0,0,0,2.615-2.616,38.5,38.5,0,0,0,.618-7.12,38.509,38.509,0,0,0-.618-7.121ZM20.708,28.1V19.229l7.686,4.437Z" fill="#fff" fill-rule="evenodd" opacity="0.8"/>
</svg>
